REM DIRINDEX 1\2,1\4,1\5,1\6,1\7,1\3\8,1\3\9,1\3\10
REM DIRNAME cjc113,folder01,folder02,folder03,folder04,folder05,folder06,folder07,folder08,folder09
TITLE ""
FILE "DB4500_5th_3B_05.mp3" MP3
  TRACK 01 AUDIO
    TITLE "0:"
    INDEX 01 00:00:00
  TRACK 02 AUDIO
    TITLE "8:cjc113_1979"
    INDEX 01 00:00:01
  TRACK 03 AUDIO
    TITLE "0:"
    INDEX 01 00:01:24
  TRACK 04 AUDIO
    TITLE "9:cjc113_1980"
    INDEX 01 00:01:44
  TRACK 05 AUDIO
    TITLE "0:"
    INDEX 01 00:03:25
  TRACK 06 AUDIO
    TITLE "10:cjc113_1981"
    INDEX 01 00:03:47
  TRACK 07 AUDIO
    TITLE "0:"
    INDEX 01 00:06:37
  TRACK 08 AUDIO
    TITLE "8:cjc113_1982"
    INDEX 01 00:07:07
  TRACK 09 AUDIO
    TITLE "0:"
    INDEX 01 00:08:30
  TRACK 10 AUDIO
    TITLE "9:cjc113_1983"
    INDEX 01 00:08:50
  TRACK 11 AUDIO
    TITLE "0:"
    INDEX 01 00:09:71
  TRACK 12 AUDIO
    TITLE "10:cjc113_1984"
    INDEX 01 00:10:18
  TRACK 13 AUDIO
    TITLE "0:"
    INDEX 01 00:13:43
  TRACK 14 AUDIO
    TITLE "8:cjc113_1985"
    INDEX 01 00:14:11
  TRACK 15 AUDIO
    TITLE "0:"
    INDEX 01 00:15:21
  TRACK 16 AUDIO
    TITLE "9:cjc113_1986"
    INDEX 01 00:15:44
  TRACK 17 AUDIO
    TITLE "0:"
    INDEX 01 00:17:10
  TRACK 18 AUDIO
    TITLE "10:cjc113_1987"
    INDEX 01 00:17:31
  TRACK 19 AUDIO
    TITLE "0:"
    INDEX 01 00:21:13
  TRACK 20 AUDIO
    TITLE "8:cjc113_1988"
    INDEX 01 00:21:53
  TRACK 21 AUDIO
    TITLE "0:"
    INDEX 01 00:22:74
  TRACK 22 AUDIO
    TITLE "9:cjc113_1989"
    INDEX 01 00:23:18
  TRACK 23 AUDIO
    TITLE "0:"
    INDEX 01 00:24:45
  TRACK 24 AUDIO
    TITLE "10:cjc113_1990"
    INDEX 01 00:24:67
  TRACK 25 AUDIO
    TITLE "0:"
    INDEX 01 00:28:43
  TRACK 26 AUDIO
    TITLE "8:cjc113_1991"
    INDEX 01 00:29:11
  TRACK 27 AUDIO
    TITLE "0:"
    INDEX 01 00:30:22
  TRACK 28 AUDIO
    TITLE "9:cjc113_1992"
    INDEX 01 00:30:42
  TRACK 29 AUDIO
    TITLE "0:"
    INDEX 01 00:31:69
  TRACK 30 AUDIO
    TITLE "10:cjc113_1993"
    INDEX 01 00:32:15
  TRACK 31 AUDIO
    TITLE "0:"
    INDEX 01 00:36:01
  TRACK 32 AUDIO
    TITLE "8:cjc113_1994"
    INDEX 01 00:36:40
  TRACK 33 AUDIO
    TITLE "0:"
    INDEX 01 00:37:57
  TRACK 34 AUDIO
    TITLE "9:cjc113_1995"
    INDEX 01 00:38:02
  TRACK 35 AUDIO
    TITLE "0:"
    INDEX 01 00:39:25
  TRACK 36 AUDIO
    TITLE "10:cjc113_1996"
    INDEX 01 00:39:47
  TRACK 37 AUDIO
    TITLE "0:"
    INDEX 01 00:43:03
  TRACK 38 AUDIO
    TITLE "8:cjc113_1997"
    INDEX 01 00:43:44
  TRACK 39 AUDIO
    TITLE "0:"
    INDEX 01 00:44:54
  TRACK 40 AUDIO
    TITLE "9:cjc113_1998"
    INDEX 01 00:44:73
  TRACK 41 AUDIO
    TITLE "0:"
    INDEX 01 00:46:23
  TRACK 42 AUDIO
    TITLE "10:cjc113_1999"
    INDEX 01 00:46:45
  TRACK 43 AUDIO
    TITLE "0:"
    INDEX 01 00:50:25
  TRACK 44 AUDIO
    TITLE "8:cjc113_2000"
    INDEX 01 00:50:66
  TRACK 45 AUDIO
    TITLE "0:"
    INDEX 01 00:52:06
  TRACK 46 AUDIO
    TITLE "9:cjc113_2001"
    INDEX 01 00:52:26
  TRACK 47 AUDIO
    TITLE "0:"
    INDEX 01 00:53:37
  TRACK 48 AUDIO
    TITLE "10:cjc113_2002"
    INDEX 01 00:53:58
  TRACK 49 AUDIO
    TITLE "0:"
    INDEX 01 00:56:59
  TRACK 50 AUDIO
    TITLE "8:cjc113_2003"
    INDEX 01 00:57:27
  TRACK 51 AUDIO
    TITLE "0:"
    INDEX 01 00:58:34
  TRACK 52 AUDIO
    TITLE "9:cjc113_2004"
    INDEX 01 00:58:54
  TRACK 53 AUDIO
    TITLE "0:"
    INDEX 01 01:00:15
  TRACK 54 AUDIO
    TITLE "10:cjc113_2005"
    INDEX 01 01:00:37
  TRACK 55 AUDIO
    TITLE "0:"
    INDEX 01 01:03:65
  TRACK 56 AUDIO
    TITLE "8:cjc113_2006"
    INDEX 01 01:04:35
  TRACK 57 AUDIO
    TITLE "0:"
    INDEX 01 01:05:64
  TRACK 58 AUDIO
    TITLE "9:cjc113_2007"
    INDEX 01 01:06:10
  TRACK 59 AUDIO
    TITLE "0:"
    INDEX 01 01:07:70
  TRACK 60 AUDIO
    TITLE "10:cjc113_2008"
    INDEX 01 01:08:15
  TRACK 61 AUDIO
    TITLE "0:"
    INDEX 01 01:11:17
  TRACK 62 AUDIO
    TITLE "8:cjc113_2009"
    INDEX 01 01:11:62
  TRACK 63 AUDIO
    TITLE "0:"
    INDEX 01 01:13:00
  TRACK 64 AUDIO
    TITLE "9:cjc113_2010"
    INDEX 01 01:13:16
  TRACK 65 AUDIO
    TITLE "0:"
    INDEX 01 01:15:03
  TRACK 66 AUDIO
    TITLE "10:cjc113_2011"
    INDEX 01 01:15:25
  TRACK 67 AUDIO
    TITLE "0:"
    INDEX 01 01:19:46
  TRACK 68 AUDIO
    TITLE "8:cjc113_2012"
    INDEX 01 01:20:14
  TRACK 69 AUDIO
    TITLE "0:"
    INDEX 01 01:21:16
  TRACK 70 AUDIO
    TITLE "9:cjc113_2013"
    INDEX 01 01:21:39
  TRACK 71 AUDIO
    TITLE "0:"
    INDEX 01 01:22:68
  TRACK 72 AUDIO
    TITLE "10:cjc113_2014"
    INDEX 01 01:23:15
  TRACK 73 AUDIO
    TITLE "0:"
    INDEX 01 01:26:46
  TRACK 74 AUDIO
    TITLE "8:cjc113_2015"
    INDEX 01 01:27:14
  TRACK 75 AUDIO
    TITLE "0:"
    INDEX 01 01:28:20
  TRACK 76 AUDIO
    TITLE "9:cjc113_2016"
    INDEX 01 01:28:41
  TRACK 77 AUDIO
    TITLE "0:"
    INDEX 01 01:29:74
  TRACK 78 AUDIO
    TITLE "10:cjc113_2017"
    INDEX 01 01:30:22
  TRACK 79 AUDIO
    TITLE "0:"
    INDEX 01 01:33:74
